<?xml version="1.0" encoding="UTF-8" standalone="no"?>
<!-- Created with Inkscape (http://www.inkscape.org/) -->

<svg
   xmlns:dc="http://purl.org/dc/elements/1.1/"
   xmlns:cc="http://creativecommons.org/ns#"
   xmlns:rdf="http://www.w3.org/1999/02/22-rdf-syntax-ns#"
   xmlns:svg="http://www.w3.org/2000/svg"
   xmlns="http://www.w3.org/2000/svg"
   xmlns:sodipodi="http://sodipodi.sourceforge.net/DTD/sodipodi-0.dtd"
   xmlns:inkscape="http://www.inkscape.org/namespaces/inkscape"
   width="87mm"
   height="87mm"
   viewBox="0 0 87 87"
   version="1.1"
   id="svg8"
   inkscape:version="0.92.2 (5c3e80d, 2017-08-06)"
   sodipodi:docname="logo.svg">
  <defs
     id="defs2" />
  <sodipodi:namedview
     id="base"
     pagecolor="#ffffff"
     bordercolor="#666666"
     borderopacity="1.0"
     inkscape:pageopacity="0.0"
     inkscape:pageshadow="2"
     inkscape:zoom="0.7"
     inkscape:cx="634.03582"
     inkscape:cy="542.52444"
     inkscape:document-units="mm"
     inkscape:current-layer="layer1"
     showgrid="false"
     inkscape:window-width="1264"
     inkscape:window-height="1042"
     inkscape:window-x="0"
     inkscape:window-y="0"
     inkscape:window-maximized="0"
     inkscape:measure-start="0,0"
     inkscape:measure-end="0,0" />
  <metadata
     id="metadata5">
    <rdf:RDF>
      <cc:Work
         rdf:about="">
        <dc:format>image/svg+xml</dc:format>
        <dc:type
           rdf:resource="http://purl.org/dc/dcmitype/StillImage" />
        <dc:title></dc:title>
      </cc:Work>
    </rdf:RDF>
  </metadata>
  <g
     inkscape:label="Layer 1"
     inkscape:groupmode="layer"
     id="layer1"
     transform="translate(0,-210)">
    <path
       style="fill:#5cb85c;fill-opacity:1;stroke-width:0.35737798"
       d="M 38.856476,296.81987 C 24.249883,295.09714 11.536998,286.40459 4.7909261,273.52725 -0.5541343,263.32425 -1.48497,250.61873 2.2917633,239.4147 8.6454551,220.56589 28.099043,208.07353 47.716658,210.24456 c 14.795956,1.63742 26.84254,9.56306 34.010838,22.37627 5.75294,10.28329 6.879967,23.53529 2.976954,35.00419 -1.378254,4.04998 -2.217061,5.75028 -4.811018,9.75222 -6.145691,9.48152 -16.190215,16.34462 -27.331082,18.67442 -4.055593,0.84812 -10.137818,1.18902 -13.705874,0.76821 z m 9.741096,-18.50188 c 11.609943,-4.00974 13.57493,-4.79129 13.947527,-5.5475 0.283772,-0.57593 0.435486,-2.68551 0.43887,-6.10254 l 0.005,-5.22232 1.066815,-1.39559 c 1.381101,-1.8067 3.311583,-6.18557 3.808973,-8.63976 1.790542,-8.83484 -2.015605,-18.041 -9.644469,-23.32767 -3.782359,-2.62109 -7.378152,-3.75224 -12.084004,-3.80126 -4.361837,-0.0455 -6.553181,0.44817 -10.393623,2.34126 -1.982792,0.97739 -3.63209,2.1648 -5.442019,3.91798 -4.361897,4.22514 -6.368664,8.64488 -6.990359,15.39568 -0.374986,4.0718 -1.046164,6.10676 -3.289758,9.97429 -0.891523,1.53682 -1.620963,3.01904 -1.620963,3.29382 0,1.11411 1.358828,1.95467 3.159879,1.95467 h 1.75549 v 6.00756 l 0.282132,5.88575 0.91897,1.4806 1.483235,1.06648 3.607684,0.41545 3.889816,0.12312 v 3.04179 c 0,2.51317 0.106769,3.10623 0.61442,3.41257 0.337933,0.20394 0.694964,0.37577 0.793403,0.38185 0.09843,0.006 6.260213,-2.08921 13.692806,-4.65623 z M 43.76655,262.73698 c -0.254671,-0.10647 -0.43888,-0.83366 -0.43888,-1.73256 0,-1.50889 -0.03871,-1.5608 -1.492159,-2.00184 -0.820693,-0.24903 -1.863722,-0.69886 -2.317839,-0.99963 -0.767965,-0.50864 -0.891981,-0.48103 -1.774697,0.39519 -0.521963,0.51813 -1.264878,0.94205 -1.65091,0.94205 -0.714879,0 -2.946222,-2.09673 -2.946222,-2.76848 0,-0.20313 0.458496,-0.82446 1.018885,-1.38072 l 1.018884,-1.0114 -0.799733,-1.87589 c -0.439865,-1.03173 -0.893405,-2.16236 -1.007867,-2.51248 -0.157656,-0.48221 -0.598039,-0.63661 -1.815841,-0.63661 h -1.607717 l 0.10453,-2.27356 0.10453,-2.27357 1.66771,-0.11087 c 1.323267,-0.088 1.667719,-0.24429 1.667719,-0.75683 0,-0.35528 0.391497,-1.44719 0.870007,-2.42648 l 0.870007,-1.78051 -1.115622,-1.19257 -1.115611,-1.19257 1.370153,-1.45381 c 1.607637,-1.7058 2.090317,-1.77917 3.367078,-0.51179 0.840776,0.83459 1.043188,0.88958 1.774697,0.48215 0.454137,-0.25293 1.457665,-0.65304 2.230079,-0.88914 1.317356,-0.40264 1.415277,-0.52834 1.579939,-2.02817 l 0.17555,-1.59891 h 2.28214 2.282129 l 0.105008,1.48318 c 0.103813,1.46642 0.13153,1.49398 2.454355,2.43967 l 2.349367,0.9565 0.900272,-0.89366 c 1.225526,-1.2165 1.723074,-1.13251 3.31835,0.56017 l 1.370154,1.45381 -1.175227,1.25629 c -1.118457,1.1956 -1.148862,1.29798 -0.629497,2.11925 0.300153,0.47463 0.741173,1.53883 0.98005,2.36488 0.419612,1.4511 0.48904,1.50561 2.051592,1.61067 l 1.617291,0.10874 v 2.18263 2.18263 l -1.667709,0.11087 c -1.323268,0.088 -1.66772,0.24429 -1.66772,0.75683 0,0.35527 -0.391138,1.44646 -0.86921,2.42484 l -0.869211,1.77889 0.869211,0.94001 c 1.148016,1.24151 1.097408,1.80151 -0.288569,3.19334 -1.401414,1.40733 -1.859143,1.44069 -3.084071,0.22478 l -0.944859,-0.9379 -1.356489,0.70439 c -0.74608,0.38742 -1.790979,0.81259 -2.322018,0.94482 -0.84213,0.20972 -0.96552,0.41621 -0.96552,1.61584 0,0.75647 -0.189593,1.57183 -0.421314,1.81193 -0.41168,0.42654 -3.183058,0.56021 -4.055175,0.1956 z m 3.709838,-7.48921 c 0.06111,-0.55019 0.325472,-1.00037 0.587488,-1.00037 0.90064,0 2.609951,-1.84604 2.828883,-3.05517 0.394065,-2.17632 -0.498086,-3.55066 -3.292514,-5.0721 -2.821349,-1.53609 -3.018356,-1.75261 -2.718999,-2.98841 0.329842,-1.36163 1.893897,-1.2305 2.415969,0.20257 0.357091,0.98017 0.55177,1.0913 1.911563,1.0913 1.008802,0 1.580128,-0.17859 1.712226,-0.53525 0.337147,-0.91029 -1.014117,-3.24347 -2.218155,-3.82999 -0.837493,-0.40798 -1.147549,-0.82102 -1.22884,-1.63697 -0.09415,-0.94503 -0.249904,-1.09131 -1.162,-1.09131 -0.889453,0 -1.070656,0.15645 -1.164895,1.0058 -0.08201,0.73929 -0.415283,1.13728 -1.257672,1.50195 -1.834899,0.79434 -2.768173,2.29432 -2.570191,4.13087 0.215987,2.00358 0.606727,2.4466 3.480376,3.94598 2.134625,1.11378 2.390122,1.36097 2.390122,2.31236 0,0.5859 -0.166971,1.17219 -0.371054,1.30287 -0.696477,0.44599 -2.049543,-0.19734 -2.51808,-1.19725 -0.386899,-0.82567 -0.6729,-0.98524 -1.65508,-0.92347 -1.953333,0.12288 -2.128246,0.28506 -1.762496,1.63417 0.390043,1.43876 1.790084,2.79359 3.185635,3.08278 0.842379,0.17455 1.014486,0.39155 1.014486,1.27911 0,0.98679 0.08768,1.06013 1.14107,0.9549 0.9508,-0.095 1.159591,-0.2808 1.252158,-1.11437 z"
       id="path3716"
       inkscape:connector-curvature="0"
       sodipodi:nodetypes="csssssssccccccsccsscssscccccccscccccscccssccccsccccsccccsccccccccsccscccccccccsccccccccscccsccscscccsccccscccccscc" />
  </g>
</svg>
